<svg xmlns="http://www.w3.org/2000/svg" xmlns:xlink="http://www.w3.org/1999/xlink" viewBox="0 0 960.47 575.56"><defs><style>.cls-1{stroke:#ff6ad5;fill:url(#linear-gradient);}.cls-10,.cls-2,.cls-4,.cls-6,.cls-8{fill:#ff6ad5;}.cls-2,.cls-3{fill-opacity:0.1;}.cls-11,.cls-3,.cls-5,.cls-7,.cls-9{fill:#94d0ff;}.cls-4,.cls-5{fill-opacity:0.15;}.cls-6,.cls-7{fill-opacity:0.25;}.cls-8,.cls-9{fill-opacity:0.5;}</style><linearGradient id="linear-gradient" x1="626.97" y1="121.67" x2="431.29" y2="652.15" gradientTransform="matrix(1, 0, 0, -1, 0, 696.62)" gradientUnits="userSpaceOnUse"><stop offset="0" stop-color="#2e294a"/><stop offset="1" stop-opacity="0"/></linearGradient></defs><title>Asset 3</title><g id="Layer_2" data-name="Layer 2"><g id="Layer_1-2" data-name="Layer 1"><path class="cls-1" d="M1.47,354.28,627,575,959.34,1Z"/><path class="cls-2" d="M345.31,230.7h3.89l23.57,41.72,23.48-41.72h3.59v67.53H345.31Zm3.59,64h47.35V238L374.42,276.4H371l-22.12-39Zm68.23-63.93h3.59v41.72a22.91,22.91,0,0,0,3.2,11.83,24,24,0,0,0,8.64,8.64,23.49,23.49,0,0,0,23.67,0,24,24,0,0,0,8.63-8.64,22.81,22.81,0,0,0,3.2-11.83V230.8h3.59v41.72A26.73,26.73,0,0,1,468,286.2a27.64,27.64,0,0,1-10,9.89,26.08,26.08,0,0,1-13.58,3.69,26.65,26.65,0,0,1-13.68-3.69,27.81,27.81,0,0,1-9.89-9.89,26.65,26.65,0,0,1-3.69-13.68ZM517.66,266a91.73,91.73,0,0,1-13.48-3.59A20.87,20.87,0,0,1,496,257a13.45,13.45,0,0,1-2.91-8.92,17.17,17.17,0,0,1,2.91-9.9,19.38,19.38,0,0,1,8.34-6.59,31.38,31.38,0,0,1,12.52-2.33,26.61,26.61,0,0,1,12.41,2.91,22,22,0,0,1,9,8,21.34,21.34,0,0,1,3.29,11.74H538a18,18,0,0,0-10.48-16.78,23.74,23.74,0,0,0-10.77-2.43,28.6,28.6,0,0,0-9.8,1.65,17.38,17.38,0,0,0-7.47,5.05,12.9,12.9,0,0,0-2.81,8.54,10.31,10.31,0,0,0,2.71,7.47,17.76,17.76,0,0,0,7.08,4.17,117.39,117.39,0,0,0,12.23,3.1,99.5,99.5,0,0,1,12.32,3.2,16.4,16.4,0,0,1,7.47,4.95q3.11,3.5,3.1,9.8a16.88,16.88,0,0,1-3.39,10.67,19.88,19.88,0,0,1-8.83,6.4,33,33,0,0,1-12,2.14,31.6,31.6,0,0,1-14.16-3,22,22,0,0,1-9.41-8.44,24.66,24.66,0,0,1-3.21-12.61h3.59a21.15,21.15,0,0,0,2.72,10.86,19.19,19.19,0,0,0,8.05,7.28,28.38,28.38,0,0,0,12.42,2.52q8.93,0,14.75-4.27A13.6,13.6,0,0,0,538,280.47c0-3.36-.85-6-2.53-7.76a14.05,14.05,0,0,0-6.4-3.88A104.3,104.3,0,0,0,517.66,266ZM610,230.8v3.59H589.77v60.34H610v3.59H566.19v-3.59h20.08V234.39H566.19V230.8Zm26.7,41.72a22.91,22.91,0,0,0,3.2,11.83,24.82,24.82,0,0,0,8.73,8.64,23.48,23.48,0,0,0,11.93,3.2,26.7,26.7,0,0,0,11.94-2.62,20.36,20.36,0,0,0,8.34-7.28,19,19,0,0,0,3.2-10.47h3.5A22,22,0,0,1,683.9,288a24.71,24.71,0,0,1-9.71,8.63,29.74,29.74,0,0,1-13.68,3.11,26.58,26.58,0,0,1-13.67-3.69,27.64,27.64,0,0,1-10-9.89,26.73,26.73,0,0,1-3.68-13.68V256.61A26.61,26.61,0,0,1,636.75,243a27.62,27.62,0,0,1,9.89-10,26.64,26.64,0,0,1,13.68-3.68,28.73,28.73,0,0,1,13.58,3.2,24.4,24.4,0,0,1,9.8,8.63,21.56,21.56,0,0,1,3.59,12.13H683.8a19,19,0,0,0-3.2-10.48,21.19,21.19,0,0,0-8.44-7.28,26.22,26.22,0,0,0-11.84-2.62,22.88,22.88,0,0,0-11.84,3.21,24,24,0,0,0-8.63,8.63,22.94,22.94,0,0,0-3.2,11.84ZM308.53,354.11A27.4,27.4,0,0,1,312.32,340a28.27,28.27,0,0,1,10.18-10.28A27.63,27.63,0,0,1,336.67,326a27.09,27.09,0,0,1,14.07,3.79A28,28,0,0,1,361,340a27.49,27.49,0,0,1,3.78,14.07v14.94A27.54,27.54,0,0,1,361,383.12a28,28,0,0,1-10.28,10.28,27.18,27.18,0,0,1-14.07,3.78,27.72,27.72,0,0,1-14.17-3.78,28.27,28.27,0,0,1-10.18-10.28,27.45,27.45,0,0,1-3.79-14.07Zm17.66,14.94A11.59,11.59,0,0,0,329.1,377a9.61,9.61,0,0,0,7.57,3.3,9.51,9.51,0,0,0,7.47-3.3,11.59,11.59,0,0,0,2.91-7.95V354a11.36,11.36,0,0,0-2.91-7.95,9.63,9.63,0,0,0-7.47-3.21,9.74,9.74,0,0,0-7.57,3.21,11.36,11.36,0,0,0-2.91,7.95Zm55.91,26.29V327.82h3.78L433,373.61V327.82h3.59v67.52H433V378.65l-47.35-46.18v62.87Zm77.34,0V327.82H463v63.93h47.05v3.59ZM574,327.82v3.59H553.86v60.34H574v3.59H530.28v-3.59h20.09V331.41H530.28v-3.59Zm23.5,67.52V327.82h3.78l47.15,45.79V327.82h3.59v67.52h-3.59V378.65l-47.34-46.18v62.87Zm74.92-67.52H720v3.59h-44v27.36h38.22v3.58H676.05v29.4h44v3.59H672.46Z"/><path class="cls-3" d="M343,229.75h3.88l23.57,41.72,23.48-41.72h3.59v67.52H343Zm3.59,64h47.34V237l-21.83,38.42h-3.39l-22.12-39Zm68.22-63.93h3.59v41.71a22.94,22.94,0,0,0,3.2,11.84,24.17,24.17,0,0,0,8.64,8.64,23.49,23.49,0,0,0,23.67,0,24.06,24.06,0,0,0,8.63-8.64,22.86,22.86,0,0,0,3.21-11.84V229.85h3.59v41.71a26.59,26.59,0,0,1-3.69,13.68,27.72,27.72,0,0,1-10,9.9,26.12,26.12,0,0,1-13.59,3.69,26.65,26.65,0,0,1-13.68-3.69,27.92,27.92,0,0,1-9.89-9.9,26.59,26.59,0,0,1-3.69-13.68Zm100.53,35.21a91,91,0,0,1-13.48-3.58,20.87,20.87,0,0,1-8.15-5.44,13.46,13.46,0,0,1-2.91-8.92,17.17,17.17,0,0,1,2.91-9.9,19.53,19.53,0,0,1,8.34-6.6,31.59,31.59,0,0,1,12.52-2.32A26.65,26.65,0,0,1,527,231.21a22,22,0,0,1,9,7.95,21.26,21.26,0,0,1,3.3,11.74H535.7a18,18,0,0,0-10.48-16.78,23.68,23.68,0,0,0-10.77-2.43,28.6,28.6,0,0,0-9.8,1.65,17.38,17.38,0,0,0-7.47,5,12.93,12.93,0,0,0-2.81,8.53,10.28,10.28,0,0,0,2.71,7.47,17.87,17.87,0,0,0,7.09,4.17,116,116,0,0,0,12.22,3.11,99.5,99.5,0,0,1,12.32,3.2,16.29,16.29,0,0,1,7.47,4.95q3.11,3.49,3.11,9.8a16.88,16.88,0,0,1-3.4,10.67,19.88,19.88,0,0,1-8.83,6.4,33.14,33.14,0,0,1-12,2.14,31.73,31.73,0,0,1-14.16-3,22.16,22.16,0,0,1-9.41-8.44,24.66,24.66,0,0,1-3.2-12.61h3.59a21.15,21.15,0,0,0,2.71,10.86,19.19,19.19,0,0,0,8.05,7.28A28.44,28.44,0,0,0,515,295.43q8.93,0,14.75-4.27a13.6,13.6,0,0,0,5.92-11.64q0-5-2.52-7.76a14.05,14.05,0,0,0-6.41-3.88A106.2,106.2,0,0,0,515.32,265.06Zm92.29-35.21v3.59H587.43v60.34h20.18v3.59H563.85v-3.59h20.09V233.44H563.85v-3.59Zm26.7,41.71a22.94,22.94,0,0,0,3.2,11.84,24.91,24.91,0,0,0,8.73,8.64,23.49,23.49,0,0,0,11.94,3.2,26.79,26.79,0,0,0,11.93-2.62,20.3,20.3,0,0,0,8.34-7.28,19,19,0,0,0,3.21-10.48h3.49a22,22,0,0,1-3.59,12.23,24.75,24.75,0,0,1-9.7,8.63,29.8,29.8,0,0,1-13.68,3.11,26.59,26.59,0,0,1-13.68-3.69,27.57,27.57,0,0,1-10-9.9,26.59,26.59,0,0,1-3.69-13.68V255.65a26.7,26.7,0,0,1,3.59-13.58,27.69,27.69,0,0,1,9.89-10A26.65,26.65,0,0,1,658,228.39a28.92,28.92,0,0,1,13.59,3.2,24.46,24.46,0,0,1,9.79,8.64A21.46,21.46,0,0,1,685,252.36h-3.49a19,19,0,0,0-3.2-10.48,21,21,0,0,0-8.44-7.28A26.19,26.19,0,0,0,658,232a22.91,22.91,0,0,0-11.83,3.2,24.17,24.17,0,0,0-8.64,8.64,22.93,22.93,0,0,0-3.2,11.83ZM306.2,353.16A27.49,27.49,0,0,1,310,339.09a28.32,28.32,0,0,1,10.19-10.29A27.66,27.66,0,0,1,334.33,325a27.18,27.18,0,0,1,14.07,3.78,28.11,28.11,0,0,1,10.28,10.29,27.5,27.5,0,0,1,3.79,14.07V368.1a27.49,27.49,0,0,1-3.79,14.06,28,28,0,0,1-10.28,10.29,27.18,27.18,0,0,1-14.07,3.78,27.66,27.66,0,0,1-14.16-3.78A28.17,28.17,0,0,1,310,382.16a27.48,27.48,0,0,1-3.78-14.06Zm17.65,14.94a11.61,11.61,0,0,0,2.91,7.95,9.63,9.63,0,0,0,7.57,3.3,9.51,9.51,0,0,0,7.47-3.3,11.61,11.61,0,0,0,2.91-7.95v-15a11.41,11.41,0,0,0-2.91-8,9.65,9.65,0,0,0-7.47-3.2,9.78,9.78,0,0,0-7.57,3.2,11.41,11.41,0,0,0-2.91,8Zm55.91,26.29V326.86h3.78l47.15,45.8v-45.8h3.59v67.53h-3.59V377.7l-47.34-46.18v62.87Zm77.34,0V326.86h3.59V390.8h47.06v3.59Zm114.6-67.53v3.59H551.52V390.8H571.7v3.59H528V390.8H548V330.45H528v-3.59Zm23.5,67.53V326.86H599l47.15,45.8v-45.8h3.59v67.53h-3.59V377.7l-47.35-46.18v62.87Zm74.92-67.53h47.54v3.59H673.71v27.36h38.22v3.59H673.71v29.4h43.95v3.59H670.12Z"/><path class="cls-4" d="M343,229.75h3.88l23.57,41.72,23.48-41.72h3.59v67.52H343Zm3.59,64h47.34V237l-21.83,38.42h-3.39l-22.12-39Zm68.22-63.93h3.59v41.71a22.94,22.94,0,0,0,3.2,11.84,24.17,24.17,0,0,0,8.64,8.64,23.49,23.49,0,0,0,23.67,0,24.06,24.06,0,0,0,8.63-8.64,22.86,22.86,0,0,0,3.21-11.84V229.85h3.59v41.71a26.59,26.59,0,0,1-3.69,13.68,27.72,27.72,0,0,1-10,9.9,26.12,26.12,0,0,1-13.59,3.69,26.65,26.65,0,0,1-13.68-3.69,27.92,27.92,0,0,1-9.89-9.9,26.59,26.59,0,0,1-3.69-13.68Zm100.53,35.21a91,91,0,0,1-13.48-3.58,20.87,20.87,0,0,1-8.15-5.44,13.46,13.46,0,0,1-2.91-8.92,17.17,17.17,0,0,1,2.91-9.9,19.53,19.53,0,0,1,8.34-6.6,31.59,31.59,0,0,1,12.52-2.32A26.65,26.65,0,0,1,527,231.21a22,22,0,0,1,9,7.95,21.26,21.26,0,0,1,3.3,11.74H535.7a18,18,0,0,0-10.48-16.78,23.68,23.68,0,0,0-10.77-2.43,28.6,28.6,0,0,0-9.8,1.65,17.38,17.38,0,0,0-7.47,5,12.93,12.93,0,0,0-2.81,8.53,10.28,10.28,0,0,0,2.71,7.47,17.87,17.87,0,0,0,7.09,4.17,116,116,0,0,0,12.22,3.11,99.5,99.5,0,0,1,12.32,3.2,16.29,16.29,0,0,1,7.47,4.95q3.11,3.49,3.11,9.8a16.88,16.88,0,0,1-3.4,10.67,19.88,19.88,0,0,1-8.83,6.4,33.14,33.14,0,0,1-12,2.14,31.73,31.73,0,0,1-14.16-3,22.16,22.16,0,0,1-9.41-8.44,24.66,24.66,0,0,1-3.2-12.61h3.59a21.15,21.15,0,0,0,2.71,10.86,19.19,19.19,0,0,0,8.05,7.28A28.44,28.44,0,0,0,515,295.43q8.93,0,14.75-4.27a13.6,13.6,0,0,0,5.92-11.64q0-5-2.52-7.76a14.05,14.05,0,0,0-6.41-3.88A106.2,106.2,0,0,0,515.32,265.06Zm92.29-35.21v3.59H587.43v60.34h20.18v3.59H563.85v-3.59h20.09V233.44H563.85v-3.59Zm26.7,41.71a22.94,22.94,0,0,0,3.2,11.84,24.91,24.91,0,0,0,8.73,8.64,23.49,23.49,0,0,0,11.94,3.2,26.79,26.79,0,0,0,11.93-2.62,20.3,20.3,0,0,0,8.34-7.28,19,19,0,0,0,3.21-10.48h3.49a22,22,0,0,1-3.59,12.23,24.75,24.75,0,0,1-9.7,8.63,29.8,29.8,0,0,1-13.68,3.11,26.59,26.59,0,0,1-13.68-3.69,27.57,27.57,0,0,1-10-9.9,26.59,26.59,0,0,1-3.69-13.68V255.65a26.7,26.7,0,0,1,3.59-13.58,27.69,27.69,0,0,1,9.89-10A26.65,26.65,0,0,1,658,228.39a28.92,28.92,0,0,1,13.59,3.2,24.46,24.46,0,0,1,9.79,8.64A21.46,21.46,0,0,1,685,252.36h-3.49a19,19,0,0,0-3.2-10.48,21,21,0,0,0-8.44-7.28A26.19,26.19,0,0,0,658,232a22.91,22.91,0,0,0-11.83,3.2,24.17,24.17,0,0,0-8.64,8.64,22.93,22.93,0,0,0-3.2,11.83ZM306.2,353.16A27.49,27.49,0,0,1,310,339.09a28.32,28.32,0,0,1,10.19-10.29A27.66,27.66,0,0,1,334.33,325a27.18,27.18,0,0,1,14.07,3.78,28.11,28.11,0,0,1,10.28,10.29,27.5,27.5,0,0,1,3.79,14.07V368.1a27.49,27.49,0,0,1-3.79,14.06,28,28,0,0,1-10.28,10.29,27.18,27.18,0,0,1-14.07,3.78,27.66,27.66,0,0,1-14.16-3.78A28.17,28.17,0,0,1,310,382.16a27.48,27.48,0,0,1-3.78-14.06Zm17.65,14.94a11.61,11.61,0,0,0,2.91,7.95,9.63,9.63,0,0,0,7.57,3.3,9.51,9.51,0,0,0,7.47-3.3,11.61,11.61,0,0,0,2.91-7.95v-15a11.41,11.41,0,0,0-2.91-8,9.65,9.65,0,0,0-7.47-3.2,9.78,9.78,0,0,0-7.57,3.2,11.41,11.41,0,0,0-2.91,8Zm55.91,26.29V326.86h3.78l47.15,45.8v-45.8h3.59v67.53h-3.59V377.7l-47.34-46.18v62.87Zm77.34,0V326.86h3.59V390.8h47.06v3.59Zm114.6-67.53v3.59H551.52V390.8H571.7v3.59H528V390.8H548V330.45H528v-3.59Zm23.5,67.53V326.86H599l47.15,45.8v-45.8h3.59v67.53h-3.59V377.7l-47.35-46.18v62.87Zm74.92-67.53h47.54v3.59H673.71v27.36h38.22v3.59H673.71v29.4h43.95v3.59H670.12Z"/><path class="cls-5" d="M345.4,229.75h3.88l23.58,41.72,23.48-41.72h3.59v67.52H345.4Zm3.59,64h47.35V237l-21.83,38.42h-3.4l-22.12-39Zm68.23-63.93h3.59v41.71A22.85,22.85,0,0,0,424,283.4a24.06,24.06,0,0,0,8.63,8.64,23.5,23.5,0,0,0,23.68,0A24.06,24.06,0,0,0,465,283.4a22.94,22.94,0,0,0,3.2-11.84V229.85h3.59v41.71a26.59,26.59,0,0,1-3.69,13.68,27.57,27.57,0,0,1-10,9.9,26.11,26.11,0,0,1-13.58,3.69,26.59,26.59,0,0,1-13.68-3.69,28,28,0,0,1-9.9-9.9,26.68,26.68,0,0,1-3.68-13.68Zm100.53,35.21a91.13,91.13,0,0,1-13.49-3.58,21,21,0,0,1-8.15-5.44,13.46,13.46,0,0,1-2.91-8.92,17.17,17.17,0,0,1,2.91-9.9,19.57,19.57,0,0,1,8.35-6.6A31.54,31.54,0,0,1,517,228.3a26.62,26.62,0,0,1,12.42,2.91,21.92,21.92,0,0,1,9,7.95,21.26,21.26,0,0,1,3.3,11.74h-3.59a18,18,0,0,0-10.47-16.78,23.74,23.74,0,0,0-10.77-2.43,28.56,28.56,0,0,0-9.8,1.65,17.38,17.38,0,0,0-7.47,5,12.88,12.88,0,0,0-2.82,8.53,10.29,10.29,0,0,0,2.72,7.47,17.76,17.76,0,0,0,7.08,4.17,116.32,116.32,0,0,0,12.23,3.11,99.5,99.5,0,0,1,12.32,3.2,16.4,16.4,0,0,1,7.47,4.95q3.1,3.49,3.1,9.8a16.88,16.88,0,0,1-3.39,10.67,19.88,19.88,0,0,1-8.83,6.4,33.22,33.22,0,0,1-12,2.14,31.8,31.8,0,0,1-14.17-3,22.22,22.22,0,0,1-9.41-8.44,24.76,24.76,0,0,1-3.2-12.61h3.59A21.15,21.15,0,0,0,497,285.63a19.13,19.13,0,0,0,8.05,7.28,28.38,28.38,0,0,0,12.42,2.52q8.92,0,14.74-4.27a13.57,13.57,0,0,0,5.92-11.64q0-5-2.52-7.76a14,14,0,0,0-6.4-3.88A106.83,106.83,0,0,0,517.75,265.06ZM610,229.85v3.59H589.85v60.34H610v3.59H566.28v-3.59h20.08V233.44H566.28v-3.59Zm26.71,41.71a22.85,22.85,0,0,0,3.2,11.84,24.91,24.91,0,0,0,8.73,8.64,23.45,23.45,0,0,0,11.93,3.2,26.83,26.83,0,0,0,11.94-2.62,20.36,20.36,0,0,0,8.34-7.28,19,19,0,0,0,3.2-10.48h3.49A21.94,21.94,0,0,1,684,287.09a24.61,24.61,0,0,1-9.7,8.63,29.74,29.74,0,0,1-13.68,3.11,26.65,26.65,0,0,1-13.68-3.69,27.72,27.72,0,0,1-10-9.9,26.59,26.59,0,0,1-3.69-13.68V255.65a26.7,26.7,0,0,1,3.59-13.58,27.72,27.72,0,0,1,9.9-10,26.59,26.59,0,0,1,13.68-3.69,28.85,28.85,0,0,1,13.58,3.2,24.42,24.42,0,0,1,9.8,8.64,21.53,21.53,0,0,1,3.59,12.13h-3.49a19.1,19.1,0,0,0-3.2-10.48,21.14,21.14,0,0,0-8.45-7.28A26.15,26.15,0,0,0,660.41,232a22.94,22.94,0,0,0-11.84,3.2,24.06,24.06,0,0,0-8.63,8.64,22.84,22.84,0,0,0-3.2,11.83Zm-328.12,81.6a27.4,27.4,0,0,1,3.79-14.07,28.29,28.29,0,0,1,10.18-10.29A27.72,27.72,0,0,1,336.76,325a27.14,27.14,0,0,1,14.06,3.78,28.06,28.06,0,0,1,10.29,10.29,27.49,27.49,0,0,1,3.78,14.07V368.1a27.48,27.48,0,0,1-3.78,14.06,27.91,27.91,0,0,1-10.29,10.29,27.14,27.14,0,0,1-14.06,3.78,27.72,27.72,0,0,1-14.17-3.78,28.14,28.14,0,0,1-10.18-10.29,27.39,27.39,0,0,1-3.79-14.06Zm17.66,14.94a11.61,11.61,0,0,0,2.91,7.95,9.61,9.61,0,0,0,7.57,3.3,9.51,9.51,0,0,0,7.47-3.3,11.61,11.61,0,0,0,2.91-7.95v-15a11.41,11.41,0,0,0-2.91-8,9.65,9.65,0,0,0-7.47-3.2,9.76,9.76,0,0,0-7.57,3.2,11.41,11.41,0,0,0-2.91,8Zm55.9,26.29V326.86H386l47.15,45.8v-45.8h3.59v67.53h-3.59V377.7l-47.35-46.18v62.87Zm77.35,0V326.86h3.59V390.8h47.05v3.59Zm114.6-67.53v3.59H554V390.8h20.18v3.59H530.37V390.8h20.09V330.45H530.37v-3.59Zm23.5,67.53V326.86h3.78l47.15,45.8v-45.8h3.59v67.53h-3.59V377.7l-47.34-46.18v62.87Zm74.92-67.53h47.53v3.59H676.14v27.36h38.22v3.59H676.14v29.4h43.94v3.59H672.55Z"/><path class="cls-6" d="M345.4,229.75h3.88l23.58,41.72,23.48-41.72h3.59v67.52H345.4Zm3.59,64h47.35V237l-21.83,38.42h-3.4l-22.12-39Zm68.23-63.93h3.59v41.71A22.85,22.85,0,0,0,424,283.4a24.06,24.06,0,0,0,8.63,8.64,23.5,23.5,0,0,0,23.68,0A24.06,24.06,0,0,0,465,283.4a22.94,22.94,0,0,0,3.2-11.84V229.85h3.59v41.71a26.59,26.59,0,0,1-3.69,13.68,27.57,27.57,0,0,1-10,9.9,26.11,26.11,0,0,1-13.58,3.69,26.59,26.59,0,0,1-13.68-3.69,28,28,0,0,1-9.9-9.9,26.68,26.68,0,0,1-3.68-13.68Zm100.53,35.21a91.13,91.13,0,0,1-13.49-3.58,21,21,0,0,1-8.15-5.44,13.46,13.46,0,0,1-2.91-8.92,17.17,17.17,0,0,1,2.91-9.9,19.57,19.57,0,0,1,8.35-6.6A31.54,31.54,0,0,1,517,228.3a26.62,26.62,0,0,1,12.42,2.91,21.92,21.92,0,0,1,9,7.95,21.26,21.26,0,0,1,3.3,11.74h-3.59a18,18,0,0,0-10.47-16.78,23.74,23.74,0,0,0-10.77-2.43,28.56,28.56,0,0,0-9.8,1.65,17.38,17.38,0,0,0-7.47,5,12.88,12.88,0,0,0-2.82,8.53,10.29,10.29,0,0,0,2.72,7.47,17.76,17.76,0,0,0,7.08,4.17,116.32,116.32,0,0,0,12.23,3.11,99.5,99.5,0,0,1,12.32,3.2,16.4,16.4,0,0,1,7.47,4.95q3.1,3.49,3.1,9.8a16.88,16.88,0,0,1-3.39,10.67,19.88,19.88,0,0,1-8.83,6.4,33.22,33.22,0,0,1-12,2.14,31.8,31.8,0,0,1-14.17-3,22.22,22.22,0,0,1-9.41-8.44,24.76,24.76,0,0,1-3.2-12.61h3.59A21.15,21.15,0,0,0,497,285.63a19.13,19.13,0,0,0,8.05,7.28,28.38,28.38,0,0,0,12.42,2.52q8.92,0,14.74-4.27a13.57,13.57,0,0,0,5.92-11.64q0-5-2.52-7.76a14,14,0,0,0-6.4-3.88A106.83,106.83,0,0,0,517.75,265.06ZM610,229.85v3.59H589.85v60.34H610v3.59H566.28v-3.59h20.08V233.44H566.28v-3.59Zm26.71,41.71a22.85,22.85,0,0,0,3.2,11.84,24.91,24.91,0,0,0,8.73,8.64,23.45,23.45,0,0,0,11.93,3.2,26.83,26.83,0,0,0,11.94-2.62,20.36,20.36,0,0,0,8.34-7.28,19,19,0,0,0,3.2-10.48h3.49A21.94,21.94,0,0,1,684,287.09a24.61,24.61,0,0,1-9.7,8.63,29.74,29.74,0,0,1-13.68,3.11,26.65,26.65,0,0,1-13.68-3.69,27.72,27.72,0,0,1-10-9.9,26.59,26.59,0,0,1-3.69-13.68V255.65a26.7,26.7,0,0,1,3.59-13.58,27.72,27.72,0,0,1,9.9-10,26.59,26.59,0,0,1,13.68-3.69,28.85,28.85,0,0,1,13.58,3.2,24.42,24.42,0,0,1,9.8,8.64,21.53,21.53,0,0,1,3.59,12.13h-3.49a19.1,19.1,0,0,0-3.2-10.48,21.14,21.14,0,0,0-8.45-7.28A26.15,26.15,0,0,0,660.41,232a22.94,22.94,0,0,0-11.84,3.2,24.06,24.06,0,0,0-8.63,8.64,22.84,22.84,0,0,0-3.2,11.83Zm-328.12,81.6a27.4,27.4,0,0,1,3.79-14.07,28.29,28.29,0,0,1,10.18-10.29A27.72,27.72,0,0,1,336.76,325a27.14,27.14,0,0,1,14.06,3.78,28.06,28.06,0,0,1,10.29,10.29,27.49,27.49,0,0,1,3.78,14.07V368.1a27.48,27.48,0,0,1-3.78,14.06,27.91,27.91,0,0,1-10.29,10.29,27.14,27.14,0,0,1-14.06,3.78,27.72,27.72,0,0,1-14.17-3.78,28.14,28.14,0,0,1-10.18-10.29,27.39,27.39,0,0,1-3.79-14.06Zm17.66,14.94a11.61,11.61,0,0,0,2.91,7.95,9.61,9.61,0,0,0,7.57,3.3,9.51,9.51,0,0,0,7.47-3.3,11.61,11.61,0,0,0,2.91-7.95v-15a11.41,11.41,0,0,0-2.91-8,9.65,9.65,0,0,0-7.47-3.2,9.76,9.76,0,0,0-7.57,3.2,11.41,11.41,0,0,0-2.91,8Zm55.9,26.29V326.86H386l47.15,45.8v-45.8h3.59v67.53h-3.59V377.7l-47.35-46.18v62.87Zm77.35,0V326.86h3.59V390.8h47.05v3.59Zm114.6-67.53v3.59H554V390.8h20.18v3.59H530.37V390.8h20.09V330.45H530.37v-3.59Zm23.5,67.53V326.86h3.78l47.15,45.8v-45.8h3.59v67.53h-3.59V377.7l-47.34-46.18v62.87Zm74.92-67.53h47.53v3.59H676.14v27.36h38.22v3.59H676.14v29.4h43.94v3.59H672.55Z"/><path class="cls-7" d="M347.83,229.75h3.88l23.57,41.72,23.48-41.72h3.59v67.52H347.83Zm3.59,64h47.34V237l-21.83,38.42h-3.39l-22.12-39Zm68.22-63.93h3.59v41.71a22.94,22.94,0,0,0,3.2,11.84,24.17,24.17,0,0,0,8.64,8.64,23.49,23.49,0,0,0,23.67,0,24.17,24.17,0,0,0,8.64-8.64,22.94,22.94,0,0,0,3.2-11.84V229.85h3.59v41.71a26.59,26.59,0,0,1-3.69,13.68,27.72,27.72,0,0,1-10,9.9,26.12,26.12,0,0,1-13.59,3.69,26.58,26.58,0,0,1-13.67-3.69,28,28,0,0,1-9.9-9.9,26.59,26.59,0,0,1-3.69-13.68Zm100.53,35.21a91,91,0,0,1-13.48-3.58,20.87,20.87,0,0,1-8.15-5.44,13.46,13.46,0,0,1-2.91-8.92,17.17,17.17,0,0,1,2.91-9.9,19.53,19.53,0,0,1,8.34-6.6,31.63,31.63,0,0,1,12.52-2.32,26.62,26.62,0,0,1,12.42,2.91,22,22,0,0,1,9,7.95,21.26,21.26,0,0,1,3.3,11.74h-3.59a18,18,0,0,0-10.48-16.78,23.68,23.68,0,0,0-10.77-2.43,28.6,28.6,0,0,0-9.8,1.65,17.38,17.38,0,0,0-7.47,5,12.93,12.93,0,0,0-2.81,8.53,10.25,10.25,0,0,0,2.72,7.47,17.76,17.76,0,0,0,7.08,4.17,116,116,0,0,0,12.22,3.11,99,99,0,0,1,12.32,3.2,16.29,16.29,0,0,1,7.47,4.95q3.11,3.49,3.11,9.8a16.82,16.82,0,0,1-3.4,10.67,19.88,19.88,0,0,1-8.83,6.4,33.14,33.14,0,0,1-12,2.14,31.76,31.76,0,0,1-14.16-3,22.16,22.16,0,0,1-9.41-8.44,24.66,24.66,0,0,1-3.2-12.61h3.59a21.15,21.15,0,0,0,2.71,10.86,19.15,19.15,0,0,0,8.06,7.28,28.36,28.36,0,0,0,12.41,2.52q8.93,0,14.75-4.27a13.57,13.57,0,0,0,5.92-11.64q0-5-2.52-7.76a14.05,14.05,0,0,0-6.41-3.88A106.2,106.2,0,0,0,520.17,265.06Zm92.29-35.21v3.59H592.28v60.34h20.18v3.59H568.71v-3.59h20.08V233.44H568.71v-3.59Zm26.7,41.71a22.94,22.94,0,0,0,3.2,11.84A24.85,24.85,0,0,0,651.1,292a23.42,23.42,0,0,0,11.93,3.2A26.76,26.76,0,0,0,675,292.62a20.3,20.3,0,0,0,8.34-7.28,19,19,0,0,0,3.21-10.48H690a22,22,0,0,1-3.59,12.23,24.68,24.68,0,0,1-9.7,8.63A29.8,29.8,0,0,1,663,298.83a26.59,26.59,0,0,1-13.68-3.69,27.64,27.64,0,0,1-10-9.9,26.59,26.59,0,0,1-3.69-13.68V255.65a26.7,26.7,0,0,1,3.59-13.58,27.77,27.77,0,0,1,9.89-10,26.65,26.65,0,0,1,13.68-3.69,28.89,28.89,0,0,1,13.59,3.2,24.55,24.55,0,0,1,9.8,8.64,21.52,21.52,0,0,1,3.58,12.13h-3.49a19,19,0,0,0-3.2-10.48,21,21,0,0,0-8.44-7.28A26.19,26.19,0,0,0,662.83,232a22.93,22.93,0,0,0-11.83,3.2,24.17,24.17,0,0,0-8.64,8.64,22.93,22.93,0,0,0-3.2,11.83Zm-328.11,81.6a27.49,27.49,0,0,1,3.78-14.07A28.32,28.32,0,0,1,325,328.8,27.66,27.66,0,0,1,339.18,325a27.18,27.18,0,0,1,14.07,3.78,28.11,28.11,0,0,1,10.28,10.29,27.4,27.4,0,0,1,3.79,14.07V368.1a27.39,27.39,0,0,1-3.79,14.06,28,28,0,0,1-10.28,10.29,27.18,27.18,0,0,1-14.07,3.78A27.66,27.66,0,0,1,325,392.45a28.17,28.17,0,0,1-10.19-10.29,27.48,27.48,0,0,1-3.78-14.06ZM328.7,368.1a11.61,11.61,0,0,0,2.91,7.95,9.63,9.63,0,0,0,7.57,3.3,9.51,9.51,0,0,0,7.47-3.3,11.61,11.61,0,0,0,2.91-7.95v-15a11.41,11.41,0,0,0-2.91-8,9.65,9.65,0,0,0-7.47-3.2,9.78,9.78,0,0,0-7.57,3.2,11.41,11.41,0,0,0-2.91,8Zm55.91,26.29V326.86h3.78l47.15,45.8v-45.8h3.59v67.53h-3.59V377.7L388.2,331.52v62.87Zm77.34,0V326.86h3.59V390.8H512.6v3.59Zm114.6-67.53v3.59H556.37V390.8h20.18v3.59H532.8V390.8h20.08V330.45H532.8v-3.59Zm23.5,67.53V326.86h3.79L651,372.66v-45.8h3.59v67.53H651V377.7l-47.35-46.18v62.87ZM675,326.86h47.54v3.59h-44v27.36h38.23v3.59H678.56v29.4h44v3.59H675Z"/><path class="cls-8" d="M348.31,229.75h3.88l23.58,41.72,23.48-41.72h3.59v67.52H348.31Zm3.59,64h47.35V237l-21.83,38.42H374l-22.12-39Zm68.23-63.93h3.59v41.71a22.85,22.85,0,0,0,3.2,11.84,24.06,24.06,0,0,0,8.63,8.64,23.5,23.5,0,0,0,23.68,0,24.06,24.06,0,0,0,8.63-8.64,22.94,22.94,0,0,0,3.2-11.84V229.85h3.59v41.71A26.59,26.59,0,0,1,471,285.24a27.57,27.57,0,0,1-10,9.9,26.11,26.11,0,0,1-13.58,3.69,26.59,26.59,0,0,1-13.68-3.69,28,28,0,0,1-9.9-9.9,26.68,26.68,0,0,1-3.68-13.68Zm100.53,35.21a91.13,91.13,0,0,1-13.49-3.58A20.91,20.91,0,0,1,499,256a13.42,13.42,0,0,1-2.92-8.92,17.1,17.1,0,0,1,2.92-9.9,19.48,19.48,0,0,1,8.34-6.6,31.54,31.54,0,0,1,12.51-2.32,26.62,26.62,0,0,1,12.42,2.91,21.85,21.85,0,0,1,9,7.95,21.26,21.26,0,0,1,3.3,11.74H541a18.17,18.17,0,0,0-2.81-10.09,18.39,18.39,0,0,0-7.66-6.69,23.74,23.74,0,0,0-10.77-2.43,28.56,28.56,0,0,0-9.8,1.65,17.38,17.38,0,0,0-7.47,5,12.88,12.88,0,0,0-2.82,8.53,10.29,10.29,0,0,0,2.72,7.47,17.76,17.76,0,0,0,7.08,4.17,116.32,116.32,0,0,0,12.23,3.11,99.5,99.5,0,0,1,12.32,3.2,16.4,16.4,0,0,1,7.47,4.95q3.11,3.49,3.1,9.8a16.88,16.88,0,0,1-3.39,10.67,19.88,19.88,0,0,1-8.83,6.4,33.22,33.22,0,0,1-12,2.14,31.8,31.8,0,0,1-14.17-3,22.22,22.22,0,0,1-9.41-8.44,24.76,24.76,0,0,1-3.2-12.61h3.59a21.15,21.15,0,0,0,2.72,10.86,19.13,19.13,0,0,0,8.05,7.28,28.38,28.38,0,0,0,12.42,2.52q8.93,0,14.75-4.27A13.59,13.59,0,0,0,541,279.52q0-5-2.52-7.76a14,14,0,0,0-6.4-3.88A106.2,106.2,0,0,0,520.66,265.06Zm92.28-35.21v3.59H592.77v60.34h20.17v3.59H569.19v-3.59h20.08V233.44H569.19v-3.59Zm26.71,41.71a22.85,22.85,0,0,0,3.2,11.84,24.91,24.91,0,0,0,8.73,8.64,23.45,23.45,0,0,0,11.93,3.2,26.83,26.83,0,0,0,11.94-2.62,20.36,20.36,0,0,0,8.34-7.28,19,19,0,0,0,3.2-10.48h3.49a21.94,21.94,0,0,1-3.59,12.23,24.61,24.61,0,0,1-9.7,8.63,29.74,29.74,0,0,1-13.68,3.11,26.65,26.65,0,0,1-13.68-3.69,27.72,27.72,0,0,1-10-9.9,26.59,26.59,0,0,1-3.69-13.68V255.65a26.7,26.7,0,0,1,3.59-13.58,27.72,27.72,0,0,1,9.9-10,26.59,26.59,0,0,1,13.68-3.69,28.85,28.85,0,0,1,13.58,3.2,24.42,24.42,0,0,1,9.8,8.64,21.53,21.53,0,0,1,3.59,12.13H686.8a19.1,19.1,0,0,0-3.2-10.48,21.18,21.18,0,0,0-8.44-7.28A26.22,26.22,0,0,0,663.32,232a23,23,0,0,0-11.84,3.2,24.06,24.06,0,0,0-8.63,8.64,22.84,22.84,0,0,0-3.2,11.83Zm-328.12,81.6a27.4,27.4,0,0,1,3.79-14.07A28.29,28.29,0,0,1,325.5,328.8,27.72,27.72,0,0,1,339.67,325a27.12,27.12,0,0,1,14.06,3.78A28.06,28.06,0,0,1,364,339.09a27.49,27.49,0,0,1,3.78,14.07V368.1A27.48,27.48,0,0,1,364,382.16a27.91,27.91,0,0,1-10.29,10.29,27.12,27.12,0,0,1-14.06,3.78,27.72,27.72,0,0,1-14.17-3.78,28.14,28.14,0,0,1-10.18-10.29,27.39,27.39,0,0,1-3.79-14.06Zm17.66,14.94a11.61,11.61,0,0,0,2.91,7.95,9.61,9.61,0,0,0,7.57,3.3,9.51,9.51,0,0,0,7.47-3.3,11.61,11.61,0,0,0,2.91-7.95v-15a11.41,11.41,0,0,0-2.91-8,9.65,9.65,0,0,0-7.47-3.2,9.76,9.76,0,0,0-7.57,3.2,11.41,11.41,0,0,0-2.91,8Zm55.9,26.29V326.86h3.79L436,372.66v-45.8h3.59v67.53H436V377.7l-47.35-46.18v62.87Zm77.35,0V326.86H466V390.8h47.05v3.59ZM577,326.86v3.59H556.86V390.8H577v3.59H533.28V390.8h20.09V330.45H533.28v-3.59Zm23.5,67.53V326.86h3.78l47.15,45.8v-45.8h3.59v67.53h-3.59V377.7l-47.34-46.18v62.87Zm74.92-67.53H723v3.59H679.05v27.36h38.22v3.59H679.05v29.4H723v3.59H675.46Z"/><path class="cls-9" d="M350.74,229.75h3.88l23.57,41.72,23.48-41.72h3.59v67.52H350.74Zm3.59,64h47.34V237l-21.83,38.42h-3.39l-22.12-39Zm68.22-63.93h3.59v41.71a22.94,22.94,0,0,0,3.2,11.84A24.17,24.17,0,0,0,438,292a23.49,23.49,0,0,0,23.67,0,24.17,24.17,0,0,0,8.64-8.64,22.94,22.94,0,0,0,3.2-11.84V229.85h3.59v41.71a26.59,26.59,0,0,1-3.69,13.68,27.72,27.72,0,0,1-10,9.9,26.11,26.11,0,0,1-13.58,3.69,26.59,26.59,0,0,1-13.68-3.69,28,28,0,0,1-9.9-9.9,26.59,26.59,0,0,1-3.69-13.68Zm100.54,35.21a90.79,90.79,0,0,1-13.49-3.58,21,21,0,0,1-8.15-5.44,13.46,13.46,0,0,1-2.91-8.92,17.17,17.17,0,0,1,2.91-9.9,19.6,19.6,0,0,1,8.34-6.6,31.63,31.63,0,0,1,12.52-2.32,26.62,26.62,0,0,1,12.42,2.91,22,22,0,0,1,9,7.95,21.26,21.26,0,0,1,3.3,11.74h-3.59A18,18,0,0,0,533,234.12a23.68,23.68,0,0,0-10.77-2.43,28.6,28.6,0,0,0-9.8,1.65,17.38,17.38,0,0,0-7.47,5,12.93,12.93,0,0,0-2.81,8.53,10.25,10.25,0,0,0,2.72,7.47,17.76,17.76,0,0,0,7.08,4.17,116,116,0,0,0,12.22,3.11,99,99,0,0,1,12.32,3.2,16.29,16.29,0,0,1,7.47,4.95q3.1,3.49,3.11,9.8a16.82,16.82,0,0,1-3.4,10.67,19.88,19.88,0,0,1-8.83,6.4,33.14,33.14,0,0,1-12,2.14,31.76,31.76,0,0,1-14.16-3,22.22,22.22,0,0,1-9.41-8.44,24.66,24.66,0,0,1-3.2-12.61h3.59a21.15,21.15,0,0,0,2.71,10.86,19.15,19.15,0,0,0,8.06,7.28,28.36,28.36,0,0,0,12.41,2.52q8.93,0,14.75-4.27a13.57,13.57,0,0,0,5.92-11.64q0-5-2.52-7.76a14.05,14.05,0,0,0-6.41-3.88A106.52,106.52,0,0,0,523.09,265.06Zm92.28-35.21v3.59H595.19v60.34h20.18v3.59H571.62v-3.59H591.7V233.44H571.62v-3.59Zm26.7,41.71a22.94,22.94,0,0,0,3.2,11.84A24.85,24.85,0,0,0,654,292a23.42,23.42,0,0,0,11.93,3.2,26.76,26.76,0,0,0,11.93-2.62,20.39,20.39,0,0,0,8.35-7.28,19.1,19.1,0,0,0,3.2-10.48h3.49a22,22,0,0,1-3.59,12.23,24.68,24.68,0,0,1-9.7,8.63,29.8,29.8,0,0,1-13.68,3.11,26.59,26.59,0,0,1-13.68-3.69,27.64,27.64,0,0,1-10-9.9,26.59,26.59,0,0,1-3.69-13.68V255.65a26.7,26.7,0,0,1,3.59-13.58,27.72,27.72,0,0,1,9.9-10,26.58,26.58,0,0,1,13.67-3.69,28.89,28.89,0,0,1,13.59,3.2,24.55,24.55,0,0,1,9.8,8.64,21.53,21.53,0,0,1,3.59,12.13h-3.5a19,19,0,0,0-3.2-10.48,21,21,0,0,0-8.44-7.28A26.19,26.19,0,0,0,665.74,232a22.93,22.93,0,0,0-11.83,3.2,24.17,24.17,0,0,0-8.64,8.64,22.93,22.93,0,0,0-3.2,11.83ZM314,353.16a27.49,27.49,0,0,1,3.78-14.07,28.32,28.32,0,0,1,10.19-10.29A27.66,27.66,0,0,1,342.09,325a27.18,27.18,0,0,1,14.07,3.78,28.11,28.11,0,0,1,10.28,10.29,27.4,27.4,0,0,1,3.79,14.07V368.1a27.39,27.39,0,0,1-3.79,14.06,28,28,0,0,1-10.28,10.29,27.18,27.18,0,0,1-14.07,3.78,27.66,27.66,0,0,1-14.16-3.78,28.17,28.17,0,0,1-10.19-10.29A27.48,27.48,0,0,1,314,368.1Zm17.65,14.94a11.61,11.61,0,0,0,2.91,7.95,9.64,9.64,0,0,0,7.57,3.3,9.51,9.51,0,0,0,7.47-3.3,11.61,11.61,0,0,0,2.91-7.95v-15a11.41,11.41,0,0,0-2.91-8,9.65,9.65,0,0,0-7.47-3.2,9.79,9.79,0,0,0-7.57,3.2,11.41,11.41,0,0,0-2.91,8Zm55.91,26.29V326.86h3.78l47.15,45.8v-45.8H442v67.53h-3.59V377.7l-47.34-46.18v62.87Zm77.34,0V326.86h3.59V390.8h47.06v3.59Zm114.6-67.53v3.59H559.28V390.8h20.18v3.59H535.71V390.8h20.08V330.45H535.71v-3.59ZM603,394.39V326.86h3.79l47.15,45.8v-45.8h3.59v67.53H653.9V377.7l-47.35-46.18v62.87Zm74.92-67.53h47.54v3.59H681.47v27.36H719.7v3.59H681.47v29.4h43.95v3.59H677.88Z"/><path class="cls-10" d="M352.92,229.75h3.88l23.58,41.72,23.47-41.72h3.59v67.52H352.92Zm3.59,64h47.34V237L382,275.45h-3.4l-22.12-39Zm68.23-63.93h3.59v41.71a22.85,22.85,0,0,0,3.2,11.84,24.06,24.06,0,0,0,8.63,8.64,23.49,23.49,0,0,0,23.67,0,24.09,24.09,0,0,0,8.64-8.64,22.94,22.94,0,0,0,3.2-11.84V229.85h3.59v41.71a26.59,26.59,0,0,1-3.69,13.68,27.64,27.64,0,0,1-10,9.9A26.11,26.11,0,0,1,452,298.83a26.59,26.59,0,0,1-13.68-3.69,28,28,0,0,1-9.9-9.9,26.58,26.58,0,0,1-3.68-13.68Zm100.53,35.21a91.13,91.13,0,0,1-13.49-3.58,21,21,0,0,1-8.15-5.44,13.46,13.46,0,0,1-2.91-8.92,17.17,17.17,0,0,1,2.91-9.9,19.57,19.57,0,0,1,8.35-6.6,31.54,31.54,0,0,1,12.51-2.32,26.62,26.62,0,0,1,12.42,2.91,21.92,21.92,0,0,1,9,7.95,21.26,21.26,0,0,1,3.3,11.74h-3.59a18,18,0,0,0-10.48-16.78,23.67,23.67,0,0,0-10.76-2.43,28.56,28.56,0,0,0-9.8,1.65,17.38,17.38,0,0,0-7.47,5,12.88,12.88,0,0,0-2.82,8.53,10.29,10.29,0,0,0,2.72,7.47,17.76,17.76,0,0,0,7.08,4.17,116.32,116.32,0,0,0,12.23,3.11,99.5,99.5,0,0,1,12.32,3.2,16.4,16.4,0,0,1,7.47,4.95q3.11,3.49,3.1,9.8a16.88,16.88,0,0,1-3.39,10.67,19.93,19.93,0,0,1-8.83,6.4,33.22,33.22,0,0,1-12,2.14,31.8,31.8,0,0,1-14.17-3,22.22,22.22,0,0,1-9.41-8.44,24.76,24.76,0,0,1-3.2-12.61h3.59a21.15,21.15,0,0,0,2.72,10.86,19.13,19.13,0,0,0,8,7.28A28.38,28.38,0,0,0,525,295.43q8.92,0,14.74-4.27a13.57,13.57,0,0,0,5.92-11.64q0-5-2.52-7.76a14,14,0,0,0-6.4-3.88A106.83,106.83,0,0,0,525.27,265.06Zm92.28-35.21v3.59H597.37v60.34h20.18v3.59H573.8v-3.59h20.08V233.44H573.8v-3.59Zm26.71,41.71a22.85,22.85,0,0,0,3.2,11.84,24.91,24.91,0,0,0,8.73,8.64,23.45,23.45,0,0,0,11.93,3.2,26.76,26.76,0,0,0,11.93-2.62,20.39,20.39,0,0,0,8.35-7.28,19,19,0,0,0,3.2-10.48h3.49a22,22,0,0,1-3.59,12.23,24.68,24.68,0,0,1-9.7,8.63,29.74,29.74,0,0,1-13.68,3.11,26.65,26.65,0,0,1-13.68-3.69,27.72,27.72,0,0,1-10-9.9,26.59,26.59,0,0,1-3.69-13.68V255.65a26.7,26.7,0,0,1,3.59-13.58,27.72,27.72,0,0,1,9.9-10,26.59,26.59,0,0,1,13.68-3.69,28.85,28.85,0,0,1,13.58,3.2,24.42,24.42,0,0,1,9.8,8.64,21.53,21.53,0,0,1,3.59,12.13h-3.49a19,19,0,0,0-3.21-10.48,21,21,0,0,0-8.44-7.28A26.15,26.15,0,0,0,667.93,232a22.94,22.94,0,0,0-11.84,3.2,24.06,24.06,0,0,0-8.63,8.64,22.84,22.84,0,0,0-3.2,11.83Zm-328.12,81.6a27.49,27.49,0,0,1,3.78-14.07,28.4,28.4,0,0,1,10.19-10.29A27.69,27.69,0,0,1,344.28,325a27.17,27.17,0,0,1,14.06,3.78,28.13,28.13,0,0,1,10.29,10.29,27.49,27.49,0,0,1,3.78,14.07V368.1a27.48,27.48,0,0,1-3.78,14.06,28,28,0,0,1-10.29,10.29,27.17,27.17,0,0,1-14.06,3.78,27.69,27.69,0,0,1-14.17-3.78,28.25,28.25,0,0,1-10.19-10.29,27.48,27.48,0,0,1-3.78-14.06ZM333.8,368.1a11.61,11.61,0,0,0,2.91,7.95,9.61,9.61,0,0,0,7.57,3.3,9.51,9.51,0,0,0,7.47-3.3,11.61,11.61,0,0,0,2.91-7.95v-15a11.41,11.41,0,0,0-2.91-8,9.65,9.65,0,0,0-7.47-3.2,9.76,9.76,0,0,0-7.57,3.2,11.41,11.41,0,0,0-2.91,8Zm55.9,26.29V326.86h3.79l47.15,45.8v-45.8h3.58v67.53h-3.58V377.7l-47.35-46.18v62.87Zm77.35,0V326.86h3.59V390.8h47.05v3.59Zm114.6-67.53v3.59H561.47V390.8h20.18v3.59H537.89V390.8H558V330.45H537.89v-3.59Zm23.5,67.53V326.86h3.78l47.15,45.8v-45.8h3.59v67.53h-3.59V377.7l-47.34-46.18v62.87Zm74.91-67.53H727.6v3.59h-44v27.36h38.23v3.59H683.65v29.4h44v3.59H680.06Z"/><path class="cls-11" d="M355.35,229.75h3.88l23.57,41.72,23.48-41.72h3.59v67.52H355.35Zm3.59,64h47.34V237l-21.83,38.42h-3.39l-22.12-39Zm68.22-63.93h3.59v41.71A22.94,22.94,0,0,0,434,283.4a24.17,24.17,0,0,0,8.64,8.64,23.49,23.49,0,0,0,23.67,0,24.06,24.06,0,0,0,8.63-8.64,22.86,22.86,0,0,0,3.21-11.84V229.85h3.58v41.71A26.58,26.58,0,0,1,478,285.24a27.72,27.72,0,0,1-10,9.9,26.12,26.12,0,0,1-13.59,3.69,26.65,26.65,0,0,1-13.68-3.69,27.92,27.92,0,0,1-9.89-9.9,26.59,26.59,0,0,1-3.69-13.68Zm100.53,35.21a91,91,0,0,1-13.48-3.58,20.87,20.87,0,0,1-8.15-5.44,13.46,13.46,0,0,1-2.91-8.92,17.17,17.17,0,0,1,2.91-9.9,19.48,19.48,0,0,1,8.34-6.6,31.59,31.59,0,0,1,12.52-2.32,26.68,26.68,0,0,1,12.42,2.91,22,22,0,0,1,9,7.95,21.26,21.26,0,0,1,3.3,11.74h-3.59a18,18,0,0,0-10.48-16.78,23.68,23.68,0,0,0-10.77-2.43,28.6,28.6,0,0,0-9.8,1.65,17.38,17.38,0,0,0-7.47,5,12.93,12.93,0,0,0-2.81,8.53,10.28,10.28,0,0,0,2.71,7.47,17.87,17.87,0,0,0,7.09,4.17,116,116,0,0,0,12.22,3.11,99.5,99.5,0,0,1,12.32,3.2,16.29,16.29,0,0,1,7.47,4.95q3.11,3.49,3.11,9.8a16.88,16.88,0,0,1-3.4,10.67,19.88,19.88,0,0,1-8.83,6.4,33.14,33.14,0,0,1-12,2.14,31.73,31.73,0,0,1-14.16-3,22.16,22.16,0,0,1-9.41-8.44,24.66,24.66,0,0,1-3.2-12.61h3.59a21.15,21.15,0,0,0,2.71,10.86,19.19,19.19,0,0,0,8.05,7.28,28.44,28.44,0,0,0,12.42,2.52q8.93,0,14.75-4.27a13.6,13.6,0,0,0,5.92-11.64q0-5-2.53-7.76a14,14,0,0,0-6.4-3.88A106.2,106.2,0,0,0,527.69,265.06ZM620,229.85v3.59H599.8v60.34H620v3.59H576.22v-3.59h20.09V233.44H576.22v-3.59Zm26.7,41.71a22.94,22.94,0,0,0,3.2,11.84,24.91,24.91,0,0,0,8.73,8.64,23.49,23.49,0,0,0,11.94,3.2,26.79,26.79,0,0,0,11.93-2.62,20.3,20.3,0,0,0,8.34-7.28A19.11,19.11,0,0,0,694,274.86h3.49a22,22,0,0,1-3.59,12.23,24.75,24.75,0,0,1-9.7,8.63,29.8,29.8,0,0,1-13.68,3.11,26.59,26.59,0,0,1-13.68-3.69,27.67,27.67,0,0,1-10-9.9,26.68,26.68,0,0,1-3.68-13.68V255.65a26.7,26.7,0,0,1,3.59-13.58,27.69,27.69,0,0,1,9.89-10,26.65,26.65,0,0,1,13.68-3.69,28.92,28.92,0,0,1,13.59,3.2,24.46,24.46,0,0,1,9.79,8.64,21.46,21.46,0,0,1,3.59,12.13h-3.49a19,19,0,0,0-3.2-10.48,21.11,21.11,0,0,0-8.44-7.28A26.19,26.19,0,0,0,670.35,232a22.91,22.91,0,0,0-11.83,3.2,24.17,24.17,0,0,0-8.64,8.64,22.93,22.93,0,0,0-3.2,11.83Zm-328.11,81.6a27.49,27.49,0,0,1,3.78-14.07,28.32,28.32,0,0,1,10.19-10.29A27.66,27.66,0,0,1,346.7,325a27.18,27.18,0,0,1,14.07,3.78,28.11,28.11,0,0,1,10.28,10.29,27.5,27.5,0,0,1,3.79,14.07V368.1a27.49,27.49,0,0,1-3.79,14.06,28,28,0,0,1-10.28,10.29,27.18,27.18,0,0,1-14.07,3.78,27.66,27.66,0,0,1-14.16-3.78,28.17,28.17,0,0,1-10.19-10.29,27.48,27.48,0,0,1-3.78-14.06Zm17.65,14.94a11.61,11.61,0,0,0,2.91,7.95,9.63,9.63,0,0,0,7.57,3.3,9.51,9.51,0,0,0,7.47-3.3,11.61,11.61,0,0,0,2.91-7.95v-15a11.41,11.41,0,0,0-2.91-8,9.65,9.65,0,0,0-7.47-3.2,9.78,9.78,0,0,0-7.57,3.2,11.41,11.41,0,0,0-2.91,8Zm55.91,26.29V326.86h3.78l47.15,45.8v-45.8h3.59v67.53h-3.59V377.7l-47.34-46.18v62.87Zm77.34,0V326.86h3.59V390.8h47.05v3.59Zm114.6-67.53v3.59H563.89V390.8h20.18v3.59H540.32V390.8H560.4V330.45H540.32v-3.59Zm23.5,67.53V326.86h3.79l47.15,45.8v-45.8h3.59v67.53h-3.59V377.7l-47.35-46.18v62.87Zm74.92-67.53H730v3.59H686.08v27.36H724.3v3.59H686.08v29.4H730v3.59H682.49Z"/></g></g></svg>